<svg width="20" height="20" viewBox="0 0 20 20" fill="none" xmlns="http://www.w3.org/2000/svg">
<g id="emojione-monotone:copyright">
<path id="Vector" d="M10 0.625C5.69187 0.625 2.1875 4.13 2.1875 8.4375C2.1875 12.745 5.69219 16.25 10 16.25C14.3081 16.25 17.8125 12.745 17.8125 8.4375C17.8125 4.13 14.3078 0.625 10 0.625ZM10 14.6878C6.55344 14.6878 3.74969 11.8841 3.74969 8.4375C3.74969 4.99156 6.55312 2.18781 10 2.18781C13.4462 2.18781 16.2497 4.99156 16.2497 8.4375C16.2494 11.8841 13.4459 14.6878 10 14.6878Z" fill="white"/>
<path id="Vector_2" d="M7.94182 6.04281C8.23123 5.736 8.57714 5.48792 8.96057 5.31219C9.35194 5.13239 9.778 5.04065 10.2087 5.04344C10.7553 5.04344 11.2568 5.17375 11.714 5.43437C12.1647 5.68925 12.5487 6.04712 12.8346 6.47875L13.9484 5.64594C13.5253 5.06826 12.9755 4.59513 12.3412 4.26281C11.6968 3.92094 10.9856 3.75 10.2084 3.75C9.56807 3.75 8.96619 3.87375 8.40307 4.12187C7.85263 4.35992 7.35273 4.70093 6.93025 5.12656C6.50839 5.55474 6.1716 6.05908 5.93775 6.61281C5.69432 7.17969 5.57275 7.78875 5.57275 8.43781C5.57275 9.08625 5.69432 9.69469 5.93775 10.2631C6.17135 10.8166 6.50818 11.3206 6.93025 11.7481C7.35276 12.174 7.85263 12.5155 8.40307 12.7541C8.9665 13.0009 9.56838 13.125 10.2084 13.125C10.9856 13.125 11.6965 12.9541 12.3412 12.6119C12.9758 12.2801 13.5257 11.8068 13.9484 11.2287L12.8346 10.3972C12.5482 10.8282 12.1643 11.1856 11.714 11.4406C11.2568 11.7009 10.7553 11.8313 10.2087 11.8313C9.77798 11.8342 9.35189 11.7424 8.96057 11.5625C8.57708 11.3869 8.23115 11.1388 7.94182 10.8319C7.65182 10.5256 7.42119 10.1659 7.25025 9.75656C7.07932 9.34719 6.994 8.90687 6.994 8.43781C6.994 7.96781 7.07932 7.52812 7.25025 7.11844C7.42119 6.70875 7.65182 6.35031 7.94182 6.04281Z" fill="white"/>
</g>
</svg>
