<svg width="24" height="24" viewBox="0 0 24 24" fill="none" xmlns="http://www.w3.org/2000/svg">
<g id="mingcute:arrow-up-line" clip-path="url(#clip0_24_35)">
<g id="Group">
<path id="Vector" d="M12.7071 3.63605C12.5196 3.44858 12.2653 3.34326 12.0001 3.34326C11.7349 3.34326 11.4806 3.44858 11.2931 3.63605L5.6361 9.29305C5.54059 9.3853 5.46441 9.49564 5.412 9.61764C5.35959 9.73965 5.332 9.87087 5.33085 10.0036C5.32969 10.1364 5.355 10.2681 5.40528 10.391C5.45556 10.5139 5.52981 10.6256 5.6237 10.7194C5.7176 10.8133 5.82925 10.8876 5.95214 10.9379C6.07504 10.9882 6.20672 11.0135 6.3395 11.0123C6.47228 11.0111 6.6035 10.9836 6.7255 10.9311C6.84751 10.8787 6.95785 10.8026 7.0501 10.707L11.0001 6.75705V20C11.0001 20.2653 11.1055 20.5196 11.293 20.7072C11.4805 20.8947 11.7349 21 12.0001 21C12.2653 21 12.5197 20.8947 12.7072 20.7072C12.8947 20.5196 13.0001 20.2653 13.0001 20V6.75705L16.9501 10.707C17.1387 10.8892 17.3913 10.99 17.6535 10.9877C17.9157 10.9854 18.1665 10.8803 18.3519 10.6949C18.5373 10.5095 18.6425 10.2586 18.6448 9.99645C18.6471 9.73425 18.5463 9.48165 18.3641 9.29305L12.7071 3.63605Z" fill="white"/>
</g>
</g>
<defs>
<clipPath id="clip0_24_35">
<rect width="24" height="24" fill="white"/>
</clipPath>
</defs>
</svg>
